<svg xmlns="http://www.w3.org/2000/svg" width="60" height="60" viewBox="0 0 60 60">
    <g fill="none" fill-rule="evenodd">
        <circle cx="30" cy="30" r="30" fill="#E1E1E1" fill-rule="nonzero"/>
        <path fill="#411D4F" d="M18.789 17.146a2.19 2.19 0 0 0-1.57-.622 2.19 2.19 0 0 0-1.569.622c-.433.414-.65.915-.65 1.5 0 .797.37 1.405 1.11 1.825v20.995c0 .144.054.268.164.373.11.105.24.158.39.158h1.11c.15 0 .28-.052.39-.158a.499.499 0 0 0 .165-.373V20.471c.74-.42 1.11-1.029 1.11-1.824 0-.586-.217-1.087-.65-1.501zM44.631 18.962c-.22-.21-.48-.315-.78-.315-.15 0-.465.116-.945.348-.48.232-.988.492-1.526.78-.537.287-1.173.547-1.907.779-.734.232-1.413.348-2.037.348-.578 0-1.087-.105-1.526-.315-1.456-.652-2.722-1.139-3.797-1.46-1.075-.32-2.23-.48-3.467-.48-2.139 0-4.572.663-7.3 1.99-.67.32-1.127.558-1.37.713-.358.254-.537.558-.537.912v12.305c0 .288.11.537.33.746.219.21.479.316.78.316.184 0 .375-.05.571-.15 3.144-1.614 5.826-2.42 8.045-2.42.844 0 1.668.12 2.47.364.804.243 1.472.509 2.003.796.532.287 1.16.553 1.882.796a6.698 6.698 0 0 0 2.141.365c1.78 0 3.913-.641 6.398-1.924.312-.155.54-.307.685-.456.144-.15.217-.362.217-.639V19.708a.998.998 0 0 0-.33-.746z"/>
    </g>
</svg>
