<svg xmlns="http://www.w3.org/2000/svg" width="60" height="60" viewBox="0 0 60 60">
    <g fill="none" fill-rule="nonzero">
        <circle cx="30" cy="30" r="30" fill="#E1E1E1"/>
        <path fill="#411D4F" d="M44.786 29.705c-.69-.288-1.704-1.645-2.78-3.08-1.95-2.61-4.162-5.568-6.546-5.568-3.149 0-4.867 1.972-5.461 2.823-.666-.77-2.485-2.559-5.044-2.559-2.009 0-4.458 2.965-6.616 5.58-1.247 1.509-2.424 2.933-3.052 3.154a.318.318 0 0 0-.208.282.318.318 0 0 0 .176.305c1.055.513 2.138 1.899 3.39 3.502 1.753 2.244 3.74 4.788 6.38 5.833 1.608.635 3.335.944 5.283.944 1.864 0 3.67-.293 5.034-.547 2.345-.439 5.851-5.244 7.945-8.117.67-.918 1.362-1.867 1.536-1.982a.321.321 0 0 0-.037-.57zm-3.238.939c-1.393.95-4.877 2.882-10.457 3.147-5.766.269-10.024-1.832-11.848-2.948 1.241-.298 2.294-.9 3.242-1.443 1.074-.614 2.002-1.144 2.97-1.144 1.197 0 2.377.4 3.325.721.76.258 1.364.46 1.807.427.399-.027.927-.188 1.538-.376.93-.284 2.088-.638 3.204-.638.802 0 1.83.493 2.919 1.015 1.08.52 2.19 1.053 3.3 1.239z"/>
    </g>
</svg>
