<svg xmlns="http://www.w3.org/2000/svg" xmlns:xlink="http://www.w3.org/1999/xlink" width="60" height="60" viewBox="0 0 60 60">
    <defs>
        <ellipse id="a" cx="22.5" cy="22.5" rx="22.5" ry="22.286"/>
    </defs>
    <g fill="none" fill-rule="evenodd">
        <circle cx="30" cy="30" r="30" fill="#E1E1E1" fill-rule="nonzero"/>
        <g transform="translate(7.5 6)">
            <mask id="b" fill="#fff">
                <use xlink:href="#a"/>
            </mask>
            <g fill="#411D4F" fill-rule="nonzero" mask="url(#b)">
                <path d="M43.397 9.414l-1.471 1.457.736.745 1.488-1.474-.753-.728zM8.895 9.096L0 14.796v6.219c1.252-.038 2.468-.065 3.663-.081v-5.101c-.002-.512.434-.989.948-1.037h8.47c.548 0 1.047.494 1.047 1.037v5.392c1.238.093 2.454.214 3.663.357v-.567c1.026 0 2.076 0 3.14.016v.955c.701.112 1.393.241 2.092.373v-1.28c1.04.022 2.087.046 3.14.081v1.863c.699.162 1.39.334 2.093.518v-2.316c1.05.043 2.095.106 3.14.162v3.044c.692.212 1.389.446 2.092.68v-3.594c1.42.088 2.819.179 4.186.291v4.793c.69.267 1.388.553 2.093.842v-5.457c1.455.137 1.802.288 3.14.454v6.348c.937.379 1.57.518 2.093 1.036-.009-7.208-.009-11.008 0-11.4.013-.588-.571-1.117-1.161-1.053-.514.056-.943.54-.932 1.053v1.927c-1.345-.161-1.691-.303-3.14-.438v-1.49c.013-.587-.57-1.116-1.16-1.052-.515.056-.944.54-.933 1.053v1.311a214.14 214.14 0 0 0-4.186-.307v-1.004c.013-.588-.57-1.117-1.16-1.053-.515.056-.944.54-.933 1.053v.89c-1.042-.055-2.091-.12-3.14-.162v-.728c.013-.588-.57-1.117-1.16-1.053-.515.056-.943.54-.932 1.053v.664c-1.056-.035-2.098-.06-3.14-.081v-.583c.013-.588-.57-1.117-1.16-1.053-.515.056-.944.54-.933 1.053v.534c-1.06-.014-2.113-.016-3.14-.016v-4.146l-8.895-5.7zM42.907 12.2v1.036H45V12.2h-2.093zm-37.151 4.67v4.049c2.125 0 4.403.079 6.279.178v-4.227h-6.28zm.032 5.085c-1.259 0-2.55.02-3.875.049 6.301 9.905 7.419 21.43 7.49 31.14h11.51c-.331-9.89-5.377-23.362-15.125-31.189zm3.222.049c9.022 8.376 13.69 21.265 13.997 31.14h10.432c-.35-4.265-2.737-10.3-6.295-15.352-3.74-5.307-8.727-11.488-13.72-15.578-1.438-.097-2.909-.172-4.414-.21zm7.914.502c4.385 4.077 8.598 9.388 11.92 14.104 3.726 5.289 6.37 11.61 6.705 16.534h9.45V47.96c-1.625-4.097-4.882-7.837-7.554-10.623-3.999-4.152-9.336-9.82-14.536-13.943-2.021-.35-4.14-.686-5.985-.89zM0 22.86v30.282h7.31C7.24 43.504 6.17 32.389 0 22.86zm27.258 1.49c4.236 3.75 8.38 8.108 11.692 11.546 2.336 2.436 4.36 4.927 6.05 7.497V30.86c-6.557-3.043-12.228-5.124-17.742-6.51z"/>
            </g>
        </g>
    </g>
</svg>
