<svg xmlns="http://www.w3.org/2000/svg" width="60" height="60" viewBox="0 0 60 60">
    <g fill="none" fill-rule="evenodd">
        <circle cx="30" cy="30" r="30" fill="#E1E1E1" fill-rule="nonzero"/>
        <g fill="#411D4F">
            <path fill-rule="nonzero" d="M29.324 22.29c0-3.192-2.536-5.79-5.652-5.79-3.117 0-5.653 2.598-5.653 5.79 0 3.191 2.536 5.788 5.653 5.788 3.116 0 5.652-2.597 5.652-5.788zm-8.497 0c0-1.607 1.276-2.914 2.845-2.914 1.568 0 2.844 1.307 2.844 2.914 0 1.605-1.276 2.912-2.844 2.912-1.569 0-2.845-1.307-2.845-2.912zM36.307 30.4c-3.117 0-5.652 2.597-5.652 5.788 0 3.192 2.535 5.79 5.652 5.79s5.652-2.598 5.652-5.79c0-3.191-2.535-5.788-5.652-5.788zm0 8.702c-1.569 0-2.845-1.307-2.845-2.914 0-1.606 1.276-2.912 2.845-2.912 1.568 0 2.844 1.306 2.844 2.912 0 1.607-1.276 2.914-2.844 2.914z"/>
            <path d="M36.481 17.242a1.505 1.505 0 0 0-2.07.604l-11.538 21.22a1.58 1.58 0 0 0 .589 2.12c.234.134.488.197.739.197.534 0 1.052-.288 1.33-.8l11.54-21.22a1.58 1.58 0 0 0-.59-2.12z"/>
        </g>
    </g>
</svg>
