<svg xmlns="http://www.w3.org/2000/svg" width="60" height="60" viewBox="0 0 60 60">
    <g fill="none" fill-rule="evenodd">
        <circle cx="30" cy="30" r="30" fill="#E1E1E1" fill-rule="nonzero"/>
        <path d="M12 12h37.5v37.5H12z"/>
        <path fill="#411D4F" fill-rule="nonzero" d="M33.176 33.502l3.154-1.58a5.86 5.86 0 0 0 3.164-6.102l-1.611-10.783a.781.781 0 0 0-.781-.666l-12.717-.012a.781.781 0 0 0-.781.666l-1.598 10.782a5.86 5.86 0 0 0 3.158 6.1l3.166 1.595c.527.265.86.805.86 1.394v9.124H25.28a.781.781 0 0 0-.781.78v1.563c0 .432.35.782.781.782h10.922c.432 0 .781-.35.781-.782v-1.562a.781.781 0 0 0-.78-.781h-3.891v-9.122c0-.59.334-1.131.863-1.396zm1.916-16.016l.64 4.297c-3.492.09-6.209 1.514-10.14 1.172l.82-5.469h8.68z"/>
    </g>
</svg>
