<svg xmlns="http://www.w3.org/2000/svg" width="60" height="60" viewBox="0 0 60 60">
    <g fill="none" fill-rule="nonzero">
        <circle cx="30" cy="30" r="30" fill="#E1E1E1"/>
        <g fill="#411D4F">
            <path d="M38.209 21.27c-.462.604-1.616 1.04-3 1.04-1.78 0-3.198-.704-3.198-1.61 0-.77 1.088-1.406 2.538-1.574l-8.703-5.025c-10.648 3.92-10.648 11.056-10.648 11.056h29.769l-6.758-3.887zm-13.055 1.776c-1.78 0-3.198-.703-3.198-1.608 0-.871 1.45-1.608 3.198-1.608 1.747 0 3.198.703 3.198 1.608 0 .905-1.418 1.608-3.198 1.608zM43.45 36.616c-1.879 0-3.395-1.542-3.395-3.451 0-1.91 1.516-3.451 3.396-3.451.428 0 .824.067 1.22.234v-2.211H15V42.01h19.88a2.556 2.556 0 0 1-.528-1.541c0-1.408 1.12-2.513 2.472-2.513 1.385 0 2.473 1.139 2.473 2.513 0 .57-.198 1.105-.528 1.54h5.835v-5.628c-.33.168-.725.235-1.153.235zM21.726 35.51c-1.78 0-3.198-1.474-3.198-3.25s1.451-3.25 3.198-3.25c1.748 0 3.198 1.474 3.198 3.25s-1.418 3.25-3.198 3.25zm5.011 3.317c-1.12 0-2.044-.938-2.044-2.077 0-1.14.923-2.078 2.044-2.078s2.044.938 2.044 2.078c.033 1.139-.89 2.077-2.044 2.077z"/>
        </g>
    </g>
</svg>
