<svg xmlns="http://www.w3.org/2000/svg" width="60" height="60" viewBox="0 0 60 60">
    <g fill="none" fill-rule="evenodd">
        <circle cx="30" cy="30" r="30" fill="#E1E1E1" fill-rule="nonzero"/>
        <g fill="#411D4F">
            <path d="M43.163 36.969c-.284-.375-.473-.719-.567-1.063-.095-.343-.063-.75 0-1.218.031-.22.063-.47.094-.75a2.4 2.4 0 0 0-.063-.938 2.238 2.238 0 0 0-.41-.875 1.643 1.643 0 0 0-.315-.344 1.348 1.348 0 0 0-.41-.281c-.126-.063-.315-.094-.44 0a.455.455 0 0 0-.19.594l.095.156a.95.95 0 0 0 .157.219c.032.093.095.156.126.25.063.156.126.343.126.531s0 .344-.031.563l-.063.687a3.64 3.64 0 0 0-.032.844c.032.312.063.625.19.906.22.625.661 1.063 1.134 1.375a.546.546 0 0 0 .536 0 .513.513 0 0 0 .063-.656zM45.905 37c-.283-.406-.504-.75-.567-1.094-.095-.343-.063-.75 0-1.218.032-.22.063-.47.095-.75A2.4 2.4 0 0 0 45.37 33a2.238 2.238 0 0 0-.41-.875c-.095-.125-.19-.25-.315-.344-.127-.125-.221-.187-.41-.312-.126-.063-.315-.094-.442 0a.455.455 0 0 0-.189.593l.095.157a.95.95 0 0 0 .158.218c.031.094.094.157.126.25.063.188.126.344.126.532 0 .187 0 .343-.032.562l-.126.75a3.64 3.64 0 0 0-.031.844c.031.313.063.625.189.906.22.625.662 1.063 1.134 1.375a.546.546 0 0 0 .536 0c.221-.156.284-.468.126-.656z"/>
            <path d="M42.28 28.344l-2.837-4.282c-.157-.25-.22-.53-.252-.843-.504-5.625-5.264-10.063-11.064-10.063C21.98 13.156 17 18.094 17 24.187c0 3.625 1.765 7.157 4.476 9.47.315.28.536.656.536 1.093v6.313c0 .5.378.906.883.968l9.55.813c.568.062 1.04-.407 1.04-.969v-4.469a.55.55 0 0 1 .537-.531h3.341c1.04 0 1.86-.813 1.86-1.844v-4.437c0-.188.157-.375.378-.375h1.64c.976.031 1.575-1.063 1.04-1.875z"/>
        </g>
    </g>
</svg>
