<svg xmlns="http://www.w3.org/2000/svg" width="60" height="60" viewBox="0 0 60 60">
    <g fill="none" fill-rule="nonzero">
        <circle cx="30" cy="30" r="30" fill="#E1E1E1"/>
        <path fill="#411D4F" d="M30 15c-5.79 0-10.5 4.874-10.5 10.865 0 7.435 9.396 18.35 9.797 18.81a.925.925 0 0 0 1.406 0c.4-.46 9.797-11.375 9.797-18.81C40.5 19.874 35.79 15 30 15zm0 16.331c-2.913 0-5.283-2.452-5.283-5.466 0-3.014 2.37-5.467 5.283-5.467 2.913 0 5.283 2.453 5.283 5.467S32.913 31.33 30 31.33z"/>
    </g>
</svg>
