<svg xmlns="http://www.w3.org/2000/svg" width="60" height="60" viewBox="0 0 60 60">
    <g fill="none" fill-rule="evenodd">
        <circle cx="30" cy="30" r="30" fill="#E1E1E1" fill-rule="nonzero"/>
        <path fill="#411D4F" fill-rule="nonzero" d="M37.25 31.637V16.75c0-3.452-2.91-6.25-6.5-6.25s-6.5 2.798-6.5 6.25v14.887C22.255 33.354 21 35.848 21 38.625 21 43.803 25.365 48 30.75 48s9.75-4.197 9.75-9.375c0-2.777-1.255-5.271-3.25-6.988zm-6.5 13.238c-3.59 0-6.5-2.798-6.5-6.25 0-1.804.795-3.478 2.167-4.66l1.083-.93V16.75c0-1.726 1.455-3.125 3.25-3.125S34 15.024 34 16.75v16.284l1.083.932c1.372 1.18 2.167 2.854 2.167 4.659 0 3.452-2.91 6.25-6.5 6.25z"/>
        <path fill="#411D4F" d="M29.125 23h3.25v18.75h-3.25z"/>
        <ellipse cx="30.75" cy="38.625" fill="#411D4F" rx="4.875" ry="4.688"/>
    </g>
</svg>
