<svg xmlns="http://www.w3.org/2000/svg" width="60" height="60" viewBox="0 0 60 60">
    <g fill="none" fill-rule="evenodd">
        <circle cx="30" cy="30" r="30" fill="#E1E1E1" fill-rule="nonzero"/>
        <g fill="#411D4F">
            <path d="M25.822 25.978a3.471 3.471 0 0 0-3.48-3.463 3.471 3.471 0 0 0-3.48 3.463 3.471 3.471 0 0 0 3.48 3.463 3.475 3.475 0 0 0 3.48-3.463zM30.431 22.515a3.48 3.48 0 0 0-3.214 2.138 3.45 3.45 0 0 0 .754 3.774 3.492 3.492 0 0 0 3.792.75 3.463 3.463 0 0 0 2.148-3.199 3.475 3.475 0 0 0-3.48-3.463zM38.52 22.515a3.48 3.48 0 0 0-3.214 2.138 3.45 3.45 0 0 0 .754 3.774 3.492 3.492 0 0 0 3.792.75A3.463 3.463 0 0 0 42 25.979a3.475 3.475 0 0 0-3.48-3.463zM29.476 33.063a3.471 3.471 0 0 0-3.48-3.462 3.471 3.471 0 0 0-3.48 3.462 3.471 3.471 0 0 0 3.48 3.463 3.475 3.475 0 0 0 3.48-3.463zM34.867 29.6a3.48 3.48 0 0 0-3.215 2.138 3.45 3.45 0 0 0 .754 3.774 3.492 3.492 0 0 0 3.792.75 3.463 3.463 0 0 0 2.148-3.199 3.475 3.475 0 0 0-3.48-3.463zM30.431 37.186a3.471 3.471 0 0 0-3.479 3.463 3.471 3.471 0 0 0 3.48 3.463c1.921 0 3.479-1.55 3.479-3.463a3.475 3.475 0 0 0-3.48-3.463zM30.177 20.346a.626.626 0 0 0 1.195.369 11.954 11.954 0 0 1 1.55-2.986c1.417-1.984 3.179-3.15 5.236-3.463a.62.62 0 1 0 .399-1.007.627.627 0 0 0-.588-.224c-2.384.364-4.49 1.749-6.09 4.006a12.975 12.975 0 0 0-1.702 3.305zM26.23 13.05a3.36 3.36 0 0 1 2.67 3.27c0 .55-.135 1.09-.396 1.573a7.394 7.394 0 0 0-4.166-3.562.622.622 0 1 0-.408 1.176 6.151 6.151 0 0 1 3.69 3.436 3.368 3.368 0 0 1-3.226.52 3.344 3.344 0 0 1-2.14-2.457L21.2 12l5.03 1.05z"/>
        </g>
    </g>
</svg>
