<svg width="60" height="60" viewBox="0 0 60 60" fill="none" xmlns="http://www.w3.org/2000/svg">
<circle cx="30" cy="30" r="30" fill="#E1E1E1"/>
<path fill-rule="evenodd" clip-rule="evenodd" d="M31.5595 12.3806C33.0405 14.1793 35.9099 17.8257 38.4898 22.0389C41.8145 27.4684 43.5001 31.9586 43.5 35.3849C43.5 42.3409 37.7804 48 30.75 48C23.7196 48 18 42.3409 18 35.3849C18 31.9609 19.6858 27.4713 23.0104 22.0412C25.5903 17.8276 28.4597 14.1799 29.9406 12.3807C30.1388 12.1398 30.4361 12 30.7501 12C31.064 11.9999 31.3613 12.1397 31.5595 12.3806ZM30.2024 43.6374C30.9825 43.6374 31.7552 43.542 32.4998 43.3536C32.7481 43.2907 32.9131 43.0745 32.8926 42.8383C32.8722 42.6021 32.6724 42.4126 32.4163 42.3864C27.2708 41.8605 23.3907 37.8707 23.3907 33.1061C23.3907 32.8326 23.4072 32.5438 23.4396 32.2482C23.4668 32.001 23.2899 31.7737 23.0264 31.7176C22.7627 31.6612 22.4952 31.7941 22.4014 32.027C21.8456 33.4054 21.5638 34.6404 21.5638 35.6973C21.5638 40.0755 25.439 43.6374 30.2024 43.6374Z" fill="#411D4F"/>
</svg>
